<svg xmlns="http://www.w3.org/2000/svg" viewBox="0 0 310.36 60"><defs><style>.cls-1{fill:#0049ff;}</style></defs><title>apidemia_logo_blue</title><g id="Layer_2" data-name="Layer 2"><g id="Layer_1-2" data-name="Layer 1"><path class="cls-1" d="M61.77,25.76a5.37,5.37,0,1,0-10.42,1.79L37.29,35.74a5.41,5.41,0,0,0-8.19,0L19,29.85l2.48-3.95L32.75,8l7.72,12.3A4,4,0,1,0,47.21,16L39.49,3.73a8,8,0,0,0-13.5,0L.61,44.2a4,4,0,1,0,6.74,4.22L17.93,31.54l10.16,5.92a5.43,5.43,0,1,0,10.21,0l14-8.18a5.36,5.36,0,0,0,9.42-3.51Z"/><path class="cls-1" d="M64.87,44.2,60.37,37a4,4,0,1,0-6.74,4.22l4.51,7.18a4,4,0,1,0,6.74-4.22Z"/><path class="cls-1" d="M109.81,21.1h3.09a1.67,1.67,0,0,1,1.67,1.67V46.1a1.67,1.67,0,0,1-1.67,1.67h-3a1.67,1.67,0,0,1-1.66-1.53l-.2-2.36c-1.52,3.14-5.68,4.65-8.66,4.71-7.9.05-13.74-4.81-13.74-14.17,0-9.2,6.11-14,13.9-14,3.57,0,7,1.68,8.49,4.33l.12-2.11A1.67,1.67,0,0,1,109.81,21.1ZM92.23,34.41c0,5.46,4.06,8.55,8.88,8.07,9.49-1,9.48-15.16,0-16.08C96.27,25.93,92.23,29,92.23,34.41Z"/><path class="cls-1" d="M119.55,58.33V22.77a1.67,1.67,0,0,1,1.67-1.67h3a1.67,1.67,0,0,1,1.66,1.47l.26,2.2a10.59,10.59,0,0,1,8.66-4.27c8.22,0,13.69,6.11,13.69,14s-4.92,14-13.47,14c-2.81,0-7-.87-8.87-3.79v13.7A1.67,1.67,0,0,1,124.48,60h-3.26A1.67,1.67,0,0,1,119.55,58.33Zm22.34-23.87a7.57,7.57,0,0,0-15.15,0,7.57,7.57,0,1,0,15.15,0Z"/><path class="cls-1" d="M159,13.58c0,5.14-7.79,5.14-7.79,0S159,8.44,159,13.58Zm-7.2,9.08V46.1a1.67,1.67,0,0,0,1.67,1.67h3.26a1.67,1.67,0,0,0,1.67-1.67V22.66A1.67,1.67,0,0,0,156.78,21h-3.26A1.67,1.67,0,0,0,151.84,22.66Z"/><path class="cls-1" d="M190.8,11.63V46.1a1.67,1.67,0,0,1-1.67,1.67h-3a1.67,1.67,0,0,1-1.66-1.47l-.26-2.2c-2.06,3.19-5.36,4.27-8.6,4.27-7.84,0-13.74-5.19-13.74-14,0-9.2,5.79-14,13.58-14,2.81,0,7.2,1.51,8.76,4.27V11.63A1.67,1.67,0,0,1,185.87,10h3.26A1.67,1.67,0,0,1,190.8,11.63ZM168.45,34.41a7.66,7.66,0,1,0,15.31,0A7.61,7.61,0,0,0,176,26.62,7.36,7.36,0,0,0,168.45,34.41Z"/><path class="cls-1" d="M201,36.79c.43,3.3,3.3,5.68,8,5.68a12.31,12.31,0,0,0,6.13-1.68,1.7,1.7,0,0,1,2.09.25l1.86,1.84a1.66,1.66,0,0,1-.15,2.52,17.37,17.37,0,0,1-10,3.07c-9.2,0-14.66-5.68-14.66-14.23,0-8.12,5.52-14,14.17-14,8.48,0,13.94,5,13.58,14.91a1.67,1.67,0,0,1-1.67,1.6Zm14.5-5.46c-.43-3.46-3.14-5.19-6.92-5.19-3.57,0-6.49,1.73-7.47,5.19Z"/><path class="cls-1" d="M244.46,47.77a1.67,1.67,0,0,1-1.67-1.67V33.49c0-3.52-1.84-6.71-5.46-6.71s-5.68,3.19-5.68,6.71V46.1A1.67,1.67,0,0,1,230,47.77h-3.26A1.67,1.67,0,0,1,225,46.1V22.72A1.67,1.67,0,0,1,226.71,21h3a1.67,1.67,0,0,1,1.65,1.42l.27,1.82c1.41-2.71,4.49-3.68,7-3.68,3.19,0,6.38,1.3,7.9,5a9.66,9.66,0,0,1,8.93-4.87c7.57,0,11.31,4.65,11.31,12.66V46.1a1.67,1.67,0,0,1-1.67,1.67h-3.26a1.67,1.67,0,0,1-1.67-1.67V33.38c0-3.52-1.46-6.49-5-6.49s-5.79,3.08-5.79,6.6V46.1a1.67,1.67,0,0,1-1.67,1.67Z"/><path class="cls-1" d="M278.6,13.58c0,5.14-7.79,5.14-7.79,0S278.6,8.44,278.6,13.58Zm-7.2,9.08V46.1a1.67,1.67,0,0,0,1.67,1.67h3.26A1.67,1.67,0,0,0,278,46.1V22.66A1.67,1.67,0,0,0,276.34,21h-3.26A1.67,1.67,0,0,0,271.41,22.66Z"/><path class="cls-1" d="M305.6,21.1h3.09a1.67,1.67,0,0,1,1.67,1.67V46.1a1.67,1.67,0,0,1-1.67,1.67h-3A1.67,1.67,0,0,1,304,46.24l-.2-2.36c-1.52,3.14-5.68,4.65-8.66,4.71-7.9.05-13.74-4.81-13.74-14.17,0-9.2,6.11-14,13.9-14,3.57,0,7,1.68,8.49,4.33l.12-2.11A1.67,1.67,0,0,1,305.6,21.1ZM288,34.41c0,5.46,4.06,8.55,8.88,8.07,9.49-1,9.48-15.16,0-16.08C292.06,25.93,288,29,288,34.41Z"/></g></g></svg>